<svg id="thorswap-logo-white" width="107" height="26" viewBox="0 0 107 26" fill="none" xmlns="http://www.w3.org/2000/svg">
<path fill-rule="evenodd" clip-rule="evenodd" d="M11.9502 12.1695L6.42027 6.51939L21.8283 0L11.9502 12.1695ZM17.4801 17.8275L0 25.2518L11.9502 12.1696L17.4801 17.8275Z" fill="url(#paint0_linear)"/>
<path d="M28.964 17V8.849H26.208V7.406H33.319V8.849H30.576V17H28.964ZM35.7253 17V7.406H37.3243V11.553H41.3673V7.406H42.9793V17H41.3673V12.996H37.3243V17H35.7253ZM49.6911 17.078C49.0497 17.078 48.4864 17.0173 48.0011 16.896C47.5244 16.7747 47.1214 16.545 46.7921 16.207C46.4714 15.869 46.2287 15.3793 46.0641 14.738C45.9081 14.0967 45.8301 13.2603 45.8301 12.229C45.8301 11.189 45.9124 10.3483 46.0771 9.707C46.2417 9.057 46.4844 8.55867 46.8051 8.212C47.1344 7.86533 47.5374 7.63133 48.0141 7.51C48.4994 7.38 49.0584 7.315 49.6911 7.315C50.3411 7.315 50.9087 7.38 51.3941 7.51C51.8794 7.63133 52.2824 7.86533 52.6031 8.212C52.9237 8.55867 53.1621 9.057 53.3181 9.707C53.4827 10.3483 53.5651 11.189 53.5651 12.229C53.5651 13.2603 53.4827 14.0967 53.3181 14.738C53.1534 15.3793 52.9107 15.869 52.5901 16.207C52.2694 16.545 51.8664 16.7747 51.3811 16.896C50.9044 17.0173 50.3411 17.078 49.6911 17.078ZM49.6911 15.635C50.1157 15.635 50.4711 15.5917 50.7571 15.505C51.0431 15.4183 51.2727 15.2537 51.4461 15.011C51.6281 14.7683 51.7581 14.426 51.8361 13.984C51.9141 13.5333 51.9531 12.9483 51.9531 12.229C51.9531 11.475 51.9141 10.8683 51.8361 10.409C51.7581 9.94967 51.6281 9.603 51.4461 9.369C51.2727 9.12633 51.0431 8.966 50.7571 8.888C50.4711 8.80133 50.1157 8.758 49.6911 8.758C49.2924 8.758 48.9501 8.80133 48.6641 8.888C48.3781 8.966 48.1441 9.12633 47.9621 9.369C47.7801 9.603 47.6457 9.94967 47.5591 10.409C47.4811 10.8683 47.4421 11.475 47.4421 12.229C47.4421 12.9483 47.4767 13.5333 47.5461 13.984C47.6241 14.426 47.7497 14.7683 47.9231 15.011C48.0964 15.2537 48.3261 15.4183 48.6121 15.505C48.9067 15.5917 49.2664 15.635 49.6911 15.635ZM56.4161 17V7.406H60.3161C60.6715 7.406 61.0051 7.44933 61.3171 7.536C61.6378 7.614 61.9195 7.76133 62.1621 7.978C62.4135 8.19467 62.6085 8.498 62.7471 8.888C62.8945 9.26933 62.9681 9.76767 62.9681 10.383C62.9681 11.0157 62.8858 11.514 62.7211 11.878C62.5565 12.2333 62.3485 12.502 62.0971 12.684C61.8458 12.8573 61.5945 12.9873 61.3431 13.074L63.1891 17H61.5641L59.9001 13.308C59.7355 13.308 59.5405 13.308 59.3151 13.308C59.0985 13.2993 58.8731 13.295 58.6391 13.295C58.4051 13.295 58.1971 13.2907 58.0151 13.282V17H56.4161ZM58.0151 12.021H60.0431C60.2945 12.021 60.5198 11.9777 60.7191 11.891C60.9185 11.7957 61.0745 11.631 61.1871 11.397C61.2998 11.163 61.3561 10.825 61.3561 10.383C61.3561 9.95833 61.2955 9.63767 61.1741 9.421C61.0615 9.19567 60.9055 9.044 60.7061 8.966C60.5068 8.888 60.2858 8.849 60.0431 8.849H58.0151V12.021ZM68.6117 17.078C68.3083 17.078 67.9703 17.065 67.5977 17.039C67.2337 17.013 66.8783 16.9783 66.5317 16.935C66.185 16.8917 65.886 16.844 65.6347 16.792V15.531C65.9987 15.557 66.4493 15.583 66.9867 15.609C67.524 15.6263 68.0397 15.635 68.5337 15.635C69.0537 15.635 69.4783 15.5613 69.8077 15.414C70.137 15.258 70.3017 14.9503 70.3017 14.491V14.036C70.3017 13.334 69.9247 12.983 69.1707 12.983H68.2737C67.3983 12.983 66.7223 12.7923 66.2457 12.411C65.7777 12.0297 65.5437 11.3753 65.5437 10.448V9.954C65.5437 9.02667 65.7993 8.35933 66.3107 7.952C66.8307 7.536 67.5717 7.328 68.5337 7.328C68.8543 7.328 69.1923 7.34533 69.5477 7.38C69.903 7.406 70.241 7.445 70.5617 7.497C70.8823 7.54033 71.1553 7.58367 71.3807 7.627V8.888C70.9907 8.862 70.553 8.836 70.0677 8.81C69.5823 8.784 69.1317 8.771 68.7157 8.771C68.213 8.771 67.8143 8.85333 67.5197 9.018C67.225 9.18267 67.0777 9.51633 67.0777 10.019V10.344C67.0777 10.7513 67.186 11.0373 67.4027 11.202C67.628 11.3667 67.9487 11.449 68.3647 11.449H69.3657C70.1977 11.449 70.8173 11.6743 71.2247 12.125C71.632 12.5757 71.8357 13.1477 71.8357 13.841V14.452C71.8357 15.1713 71.697 15.7217 71.4197 16.103C71.1423 16.4757 70.761 16.7313 70.2757 16.87C69.7903 17.0087 69.2357 17.078 68.6117 17.078ZM76.3102 17L73.9572 7.406H75.6212L77.3502 14.66L79.3522 7.406H80.8602L82.8492 14.66L84.5782 7.406H86.2422L83.8892 17H82.2252L80.1062 9.733L77.9742 17H76.3102ZM87.6859 17L90.8059 7.406H92.8339L95.9539 17H94.2769L93.5359 14.725H90.0649L89.3369 17H87.6859ZM90.4419 13.282H93.1459L91.7939 8.784L90.4419 13.282ZM98.4325 17V7.406H102.398C102.701 7.406 103.009 7.445 103.321 7.523C103.633 7.59233 103.919 7.73533 104.179 7.952C104.447 8.16867 104.66 8.48933 104.816 8.914C104.98 9.33867 105.063 9.90633 105.063 10.617C105.063 11.3277 104.98 11.904 104.816 12.346C104.651 12.7793 104.434 13.1087 104.166 13.334C103.906 13.5593 103.62 13.7153 103.308 13.802C103.004 13.88 102.71 13.919 102.424 13.919C102.233 13.919 101.977 13.906 101.657 13.88C101.336 13.854 101.024 13.828 100.721 13.802C100.426 13.776 100.196 13.75 100.032 13.724V17H98.4325ZM100.032 12.463H102.19C102.571 12.463 102.874 12.3287 103.1 12.06C103.334 11.7913 103.451 11.3147 103.451 10.63C103.451 9.954 103.334 9.49033 103.1 9.239C102.874 8.979 102.588 8.849 102.242 8.849H100.032V12.463Z" fill="#F8F8F8"/>
<defs>
<linearGradient id="paint0_linear" x1="0" y1="25.2518" x2="21.8283" y2="25.2518" gradientUnits="userSpaceOnUse">
<stop stop-color="#00CCFF"/>
<stop offset="1" stop-color="#33FF99"/>
</linearGradient>
</defs>
</svg>
